<svg xmlns="http://www.w3.org/2000/svg" viewBox="0 0 2560 1024"><svg xmlns="http://www.w3.org/2000/svg" viewBox="0 0 512 512" style="height: 128px; width: 128px;" height="512" width="512" x="0" y="0"><path d="M0 0h512v512H0z" fill="#000" fill-opacity="0"></path><g class="" transform="translate(-56,82)" style=""><path d="M235.11 196.24l17.074-29.463v29.463H235.11zM486.95 456H25.05L256 56zm-358.631-54.833l41.212-22.943-6.702-12.075-59.699 33.303 5.458 9.805a11.278 11.278 0 0 1 2.645-.881 11.822 11.822 0 0 1 5.566-.085 12.534 12.534 0 0 1 6.34 4.01 59.3 59.3 0 0 1 5.071 7.353l7.994-4.456zM273.074 196.24h-7.74v-42.734H250.24l-25.14 41.515v11.749h27.072v14.72h13.162v-14.72h7.74v-10.518zm131.619 212.45q6.822-11.93.616-21.735-3.26-5.132-10.675-9.745l-6.484 11.338a22.677 22.677 0 0 1 6.533 5.483q2.873 4.19-.17 9.515a8.453 8.453 0 0 1-5.916 4.552 10.868 10.868 0 0 1-7.463-1.497 14.08 14.08 0 0 1-6.436-8.513 99.728 99.728 0 0 1-2.294-15.167q-1.316-13.089-5.82-18.982a32.144 32.144 0 0 0-10.095-9.418l-23.28 40.705 10.275 5.88 14.828-25.913a15.203 15.203 0 0 1 1.679 4.577q.47 2.415 1.062 8.585l.64 6.57a45.149 45.149 0 0 0 2.717 12.823 21.518 21.518 0 0 0 9.455 10.638q8.598 4.915 17.002 2.33 8.404-2.584 13.814-12.014z" fill="#000" fill-opacity="1" transform="translate(0, 0) scale(1, 1) rotate(-480, 256, 256) skewX(0) skewY(0)"></path></g></svg><svg xmlns="http://www.w3.org/2000/svg" viewBox="0 0 512 512" style="height: 128px; width: 128px;" height="512" width="512" x="512" y="0"><path d="M0 0h512v512H0z" fill="#000" fill-opacity="0"></path><g class="" transform="translate(60,82)" style=""><path d="M235.11 196.24l17.074-29.463v29.463H235.11zM486.95 456H25.05L256 56zm-358.631-54.833l41.212-22.943-6.702-12.075-59.699 33.303 5.458 9.805a11.278 11.278 0 0 1 2.645-.881 11.822 11.822 0 0 1 5.566-.085 12.534 12.534 0 0 1 6.34 4.01 59.3 59.3 0 0 1 5.071 7.353l7.994-4.456zM273.074 196.24h-7.74v-42.734H250.24l-25.14 41.515v11.749h27.072v14.72h13.162v-14.72h7.74v-10.518zm131.619 212.45q6.822-11.93.616-21.735-3.26-5.132-10.675-9.745l-6.484 11.338a22.677 22.677 0 0 1 6.533 5.483q2.873 4.19-.17 9.515a8.453 8.453 0 0 1-5.916 4.552 10.868 10.868 0 0 1-7.463-1.497 14.08 14.08 0 0 1-6.436-8.513 99.728 99.728 0 0 1-2.294-15.167q-1.316-13.089-5.82-18.982a32.144 32.144 0 0 0-10.095-9.418l-23.28 40.705 10.275 5.88 14.828-25.913a15.203 15.203 0 0 1 1.679 4.577q.47 2.415 1.062 8.585l.64 6.57a45.149 45.149 0 0 0 2.717 12.823 21.518 21.518 0 0 0 9.455 10.638q8.598 4.915 17.002 2.33 8.404-2.584 13.814-12.014z" fill="#000" fill-opacity="1" transform="translate(0, 0) scale(1, 1) rotate(-600, 256, 256) skewX(0) skewY(0)"></path></g></svg><svg xmlns="http://www.w3.org/2000/svg" viewBox="0 0 512 512" style="height: 128px; width: 128px;" height="512" width="512" x="1024" y="0"><path d="M0 0h512v512H0z" fill="#000" fill-opacity="0"></path><g class="" transform="translate(-51,82)" style=""><g transform="translate(0, 0) scale(1, 1) rotate(-480, 256, 256) skewX(0) skewY(0)"><path d="M235.11 196.24L252.184 166.777L252.184 196.24L235.11 196.24Z" class="" fill="#000" fill-opacity="1"></path><path d="M486.95 456L25.05 456L256 56Z" class="" fill="#000000" fill-opacity="1"></path><path d="M128.319 401.167L169.531 378.224L162.829 366.149L103.13 399.452L108.588 409.257C109.43 408.855 110.318 408.559 111.233 408.376C113.055 407.905 114.963 407.876 116.799 408.291C119.272 408.949 121.485 410.348 123.139 412.301C125.012 414.621 126.707 417.079 128.21 419.654L136.204 415.198Z" class="" fill="#ffffff" fill-opacity="0.99"></path><path d="M273.074 196.24L265.334 196.24L265.334 153.506L250.24 153.506L225.1 195.021L225.1 206.77L252.172 206.77L252.172 221.49L265.334 221.49L265.334 206.77L273.074 206.77L273.074 196.252Z" class="" fill="#ffffff" fill-opacity="1"></path><path d="M404.693 408.69C409.241 400.737 409.446 393.492 405.309 386.955C403.136 383.534 399.577 380.285 394.634 377.21L388.15 388.548C390.655 389.946 392.872 391.807 394.683 394.031C396.598 396.824 396.542 399.996 394.513 403.546C393.354 405.899 391.168 407.581 388.597 408.098C386.01 408.515 383.36 407.983 381.134 406.601C377.955 404.718 375.643 401.66 374.698 398.088C373.545 393.099 372.778 388.028 372.404 382.921C371.527 374.195 369.587 367.868 366.584 363.939C363.941 360.106 360.496 356.892 356.489 354.521L333.209 395.226L343.484 401.106L358.312 375.193C359.114 376.618 359.681 378.164 359.991 379.77C360.304 381.38 360.658 384.242 361.053 388.355L361.693 394.925C361.97 399.309 362.885 403.629 364.41 407.748C366.264 412.264 369.598 416.015 373.865 418.386C379.597 421.663 385.264 422.439 390.867 420.716C396.47 418.993 401.074 414.989 404.681 408.702Z" class="selected" fill="#000" fill-opacity="1"></path></g></g><g font-family="Arial, Helvetica, sans-serif" font-size="100" font-style="normal" font-weight="bold" text-anchor="middle" text-decoration=" rgba(255, 255, 255, 1)" class="" transform="translate(263,205)" style=""><g><text stroke="rgba(0, 0, 0, 0)" stroke-width="25"><tspan x="0" y="0">3</tspan></text><text fill="rgba(255, 255, 255, 1)"><tspan x="0" y="0">3</tspan></text></g></g></svg><svg xmlns="http://www.w3.org/2000/svg" viewBox="0 0 512 512" style="height: 128px; width: 128px;" height="512" width="512" x="1536" y="0"><path d="M0 0h512v512H0z" fill="#000" fill-opacity="0"></path><g class="" transform="translate(0,0)" style=""><path d="M235.11 196.24l17.074-29.463v29.463H235.11zM486.95 456H25.05L256 56zm-358.631-54.833l41.212-22.943-6.702-12.075-59.699 33.303 5.458 9.805a11.278 11.278 0 0 1 2.645-.881 11.822 11.822 0 0 1 5.566-.085 12.534 12.534 0 0 1 6.34 4.01 59.3 59.3 0 0 1 5.071 7.353l7.994-4.456zM273.074 196.24h-7.74v-42.734H250.24l-25.14 41.515v11.749h27.072v14.72h13.162v-14.72h7.74v-10.518zm131.619 212.45q6.822-11.93.616-21.735-3.26-5.132-10.675-9.745l-6.484 11.338a22.677 22.677 0 0 1 6.533 5.483q2.873 4.19-.17 9.515a8.453 8.453 0 0 1-5.916 4.552 10.868 10.868 0 0 1-7.463-1.497 14.08 14.08 0 0 1-6.436-8.513 99.728 99.728 0 0 1-2.294-15.167q-1.316-13.089-5.82-18.982a32.144 32.144 0 0 0-10.095-9.418l-23.28 40.705 10.275 5.88 14.828-25.913a15.203 15.203 0 0 1 1.679 4.577q.47 2.415 1.062 8.585l.64 6.57a45.149 45.149 0 0 0 2.717 12.823 21.518 21.518 0 0 0 9.455 10.638q8.598 4.915 17.002 2.33 8.404-2.584 13.814-12.014z" fill="#000" fill-opacity="1" transform="translate(0, 0) scale(1, 1) rotate(-360, 256, 256) skewX(0) skewY(0)"></path></g></svg><svg xmlns="http://www.w3.org/2000/svg" viewBox="0 0 512 512" style="height: 128px; width: 128px;" height="512" width="512" x="2048" y="0"><path d="M0 0h512v512H0z" fill="#000" fill-opacity="0"></path><g class="" transform="translate(0,0)" style=""><path d="M255.703 44.764c-6.176 0-12.353 1.384-17.137 4.152l-152.752 88.36c-9.57 5.535-9.57 14.29 0 19.826l152.752 88.359c9.57 5.536 24.703 5.536 34.272 0l152.754-88.36c9.57-5.534 9.57-14.289 0-19.824L272.838 48.916c-4.785-2.77-10.96-4.152-17.135-4.152zm-29.457 43.488l80.762 50.475 13.754-8.252 23.918 14.95-13.752 8.253 23.318 14.574-23.502 14.102-23.32-14.575-42.744 25.647-28.291-17.684-37.778-70.91 27.635-16.58zm3.676 31.088l26.336 49.838 27.248-16.35-53.584-33.488zm205.945 54.474c-1.938.074-4.218.858-6.955 2.413l-146.935 84.847c-9.57 5.527-17.14 18.638-17.14 29.69v157.699c0 11.05 7.57 15.419 17.14 9.89l146.937-84.843c9.57-5.527 17.137-18.636 17.137-29.688v-157.7c-2.497-8.048-5.23-12.495-10.184-12.308zm-359.763.48c-6.227 0-10.033 5.325-10.155 11.825v157.697c0 11.052 7.57 24.163 17.14 29.69l146.93 84.848c9.57 5.526 17.141 1.156 17.141-9.895v-157.7c0-11.051-7.57-24.159-17.14-29.687L83.09 176.225c-2.567-1.338-4.911-1.93-6.986-1.93zm316.209 54.317v25.29l-46.262 27.757v20.64a83.52 83.52 0 0 1 6.262-5.364 61.303 61.303 0 0 1 6.619-4.598c12.953-7.772 23.037-9.742 30.25-5.908 7.212 3.774 10.818 12.93 10.818 27.465 0 14.416-3.938 28.067-11.814 40.955-7.83 12.858-18.72 23.471-32.67 31.841-6.026 3.616-12.005 6.46-17.936 8.53-5.884 2.1-11.744 3.412-17.58 3.935v-27.076c5.789.697 11.27.536 16.441-.482a46.02 46.02 0 0 0 14.733-5.711c6.643-3.986 11.862-9.144 15.658-15.473 3.843-6.416 5.766-13.108 5.766-20.078 0-7.03-1.923-11.417-5.766-13.162-3.796-1.773-9.015-.668-15.658 3.318-3.938 2.363-8.138 5.539-12.598 9.526-4.46 3.927-9.252 8.768-14.377 14.523V269.48l68.113-40.869zm-253.807 16.475c5.971.127 12.804 2.499 20.498 7.115 4.624 2.775 9.112 5.938 13.467 9.488 4.354 3.551 8.665 7.543 12.93 11.977v24.264c-4.265-5.197-8.282-9.54-12.053-13.034-3.771-3.552-7.454-6.405-11.045-8.56-7.722-4.633-13.737-5.43-18.047-2.389-4.31 2.982-6.825 9.766-7.543 20.354 2.963-1.094 6.174-1.308 9.63-.64 3.458.608 7.228 2.14 11.313 4.591 10.28 6.168 18.565 15.063 24.85 26.687 6.33 11.652 9.494 23.837 9.494 36.555 0 14.066-3.524 23.235-10.572 27.504-7.049 4.21-16.498 2.76-28.35-4.352-13.064-7.838-23.188-19.656-30.371-35.453-7.138-15.828-10.707-34.32-10.707-55.478 0-21.685 4.175-36.206 12.525-43.563 3.673-3.232 7.939-4.92 12.797-5.062.39-.012.786-.013 1.184-.004zm8.88 70.256c-1.705-.057-3.13.54-4.275 1.787-2.244 2.463-3.367 7.531-3.367 15.209s1.123 14.125 3.367 19.34c2.29 5.183 5.702 9.135 10.237 11.855 4.579 2.748 7.99 2.89 10.234.428 2.29-2.494 3.436-7.58 3.436-15.258 0-7.678-1.146-14.11-3.436-19.293-2.245-5.215-5.655-9.196-10.234-11.943-2.267-1.36-4.255-2.069-5.961-2.125z" fill="#000" fill-opacity="1"></path></g></svg><svg xmlns="http://www.w3.org/2000/svg" viewBox="0 0 512 512" style="height: 128px; width: 128px;" height="512" width="512" x="0" y="512"><path d="M0 0h512v512H0z" fill="#000" fill-opacity="0"></path><g class="" transform="translate(0,0)" style=""><path d="M255.703 44.764c-6.176 0-12.353 1.384-17.137 4.152l-152.752 88.36c-9.57 5.535-9.57 14.29 0 19.826l152.752 88.359c9.57 5.536 24.703 5.536 34.272 0l152.754-88.36c9.57-5.534 9.57-14.289 0-19.824L272.838 48.916c-4.785-2.77-10.96-4.152-17.135-4.152zm-23.39 39.847l23.8 14.875-46.263 27.76 19.427 12.14a38.645 38.645 0 0 1 4.75-4.702c1.743-1.527 3.752-2.974 6.03-4.34 12.953-7.772 26.878-11.423 41.771-10.95 14.838.439 29.095 4.933 42.776 13.483 13.568 8.48 20.256 17.485 20.06 27.012-.148 9.498-7.198 18.43-21.148 26.8-6.026 3.616-12.705 6.767-20.037 9.45-7.23 2.689-15.166 4.908-23.805 6.658l-25.483-15.928c9.714-1.02 18.138-2.469 25.272-4.346 7.182-1.905 13.075-4.238 17.678-7 6.643-3.985 9.956-8.308 9.94-12.968-.026-4.724-3.318-9.137-9.878-13.237-6.616-4.135-13.752-6.24-21.408-6.316-7.609-.105-14.734 1.834-21.377 5.82-3.938 2.363-7.521 5.268-10.748 8.715-3.283 3.412-6.225 7.444-8.826 12.096l-70.645-44.153 68.113-40.869zm203.554 89.203c-1.938.074-4.218.858-6.955 2.413l-146.935 84.847c-9.57 5.527-17.14 18.638-17.14 29.69v157.699c0 11.05 7.57 15.419 17.14 9.89l146.937-84.843c9.57-5.527 17.137-18.636 17.137-29.688v-157.7c-2.497-8.048-5.23-12.495-10.184-12.308zm-359.763.48c-6.227 0-10.033 5.325-10.155 11.825v157.697c0 11.052 7.57 24.163 17.14 29.69l146.93 84.848c9.57 5.526 17.141 1.156 17.141-9.895v-157.7c0-11.051-7.57-24.159-17.14-29.687L83.09 176.225c-2.567-1.338-4.911-1.93-6.986-1.93zM393.4 233.587v24.264c-4.264-.079-8.281.397-12.052 1.43-3.771.973-7.454 2.538-11.045 4.693-7.722 4.633-13.737 11.055-18.047 19.267-4.31 8.154-6.825 17.955-7.543 29.405 2.963-4.65 6.174-8.715 9.63-12.196 3.458-3.54 7.228-6.535 11.313-8.986 10.28-6.168 18.565-7.211 24.85-3.129 6.33 4.055 9.494 12.442 9.494 25.16 0 14.066-3.524 27.462-10.572 40.19-7.049 12.668-16.498 22.558-28.35 29.67-13.064 7.838-23.188 8.17-30.371.992-7.138-7.263-10.707-21.474-10.707-42.631 0-21.685 4.175-41.216 12.525-58.592 8.395-17.462 19.889-30.57 34.479-39.324 4.624-2.775 9.112-5 13.467-6.676 4.354-1.675 8.665-2.854 12.93-3.537zm-242.789 13.582l27.635 16.58v85.809L192 357.809v25.414l-13.754-8.252v24.777l-23.502-14.102V360.87L112 335.223v-30.06l38.611-57.995zm4.133 31.355l-27.248 40.582 27.248 16.35v-56.932zm212.596 35.182c-1.706.057-3.703.773-5.992 2.147-4.535 2.72-7.947 6.701-10.237 11.943-2.244 5.156-3.367 11.572-3.367 19.25 0 7.678 1.123 12.777 3.367 15.299 2.29 2.436 5.702 2.295 10.237-.426 4.579-2.748 7.99-6.701 10.234-11.857 2.29-5.242 3.436-11.702 3.436-19.38 0-7.677-1.146-12.733-3.436-15.17-1.122-1.26-2.536-1.862-4.242-1.806z" fill="#000" fill-opacity="1"></path></g></svg><svg xmlns="http://www.w3.org/2000/svg" viewBox="0 0 512 512" style="height: 128px; width: 128px;" height="512" width="512" x="512" y="512"><path d="M0 0h512v512H0z" fill="#000" fill-opacity="0"></path><g class="" transform="translate(0,0)" style=""><path d="M255.703 44.764c-6.176 0-12.353 1.384-17.137 4.152l-152.752 88.36c-9.57 5.535-9.57 14.29 0 19.826l152.752 88.359c9.57 5.536 24.703 5.536 34.272 0l152.754-88.36c9.57-5.534 9.57-14.289 0-19.824L272.838 48.916c-4.785-2.77-10.96-4.152-17.135-4.152zM238.695 87.27l22.838 14.273c-6.747 1.007-12.586 2.28-17.515 3.818-4.985 1.504-9.272 3.334-12.864 5.489-7.721 4.633-11.09 9.897-10.105 15.793.93 5.86 6.223 12.247 15.875 19.16.26-3.467 1.457-6.652 3.59-9.553 2.077-2.936 5.159-5.629 9.244-8.08 10.28-6.168 22.259-8.83 35.935-7.98 13.722.821 26.568 4.973 38.537 12.455 13.239 8.274 20.334 17.024 21.284 26.251.894 9.194-4.584 17.346-16.436 24.458-13.064 7.838-28.593 10.533-46.588 8.085-18.004-2.508-36.964-9.986-56.877-22.431-20.41-12.756-32.258-25.276-35.547-37.56-3.299-12.347 2.348-22.895 16.938-31.65 4.624-2.774 9.554-5.192 14.79-7.253 5.238-2.061 10.871-3.82 16.901-5.275zm38.678 53.23c-4.169-.007-7.972 1.02-11.406 3.08-4.534 2.72-6.125 5.906-4.774 9.555 1.341 3.587 5.624 7.64 12.85 12.156 7.226 4.516 13.78 7.237 19.666 8.166 5.875.867 11.081-.059 15.615-2.78 4.58-2.747 6.198-5.915 4.858-9.503-1.351-3.65-5.64-7.732-12.866-12.248-7.226-4.516-13.777-7.207-19.652-8.074a27.826 27.826 0 0 0-4.291-.352zm158.494 33.314c-1.938.074-4.218.858-6.955 2.413l-146.935 84.847c-9.57 5.527-17.14 18.638-17.14 29.69v157.699c0 11.05 7.57 15.419 17.14 9.89l146.937-84.843c9.57-5.527 17.137-18.636 17.137-29.688v-157.7c-2.497-8.048-5.23-12.495-10.184-12.308zm-359.763.48c-6.227 0-10.033 5.325-10.155 11.825v157.697c0 11.052 7.57 24.163 17.14 29.69l146.93 84.848c9.57 5.526 17.141 1.156 17.141-9.895v-157.7c0-11.051-7.57-24.159-17.14-29.687L83.09 176.225c-2.567-1.338-4.911-1.93-6.986-1.93zm40.095 52.226l68.114 40.869v25.287l-46.262-27.758v20.64a43.279 43.279 0 0 1 6.262 2.151c2.135.864 4.341 1.98 6.619 3.346 12.953 7.772 23.037 17.902 30.25 30.39 7.212 12.43 10.818 25.912 10.818 40.448 0 14.416-3.938 23.342-11.814 26.777-7.83 3.464-18.72 1.01-32.67-7.36-6.026-3.615-12.005-7.948-17.936-12.996-5.884-4.96-11.744-10.68-17.58-17.16v-27.076c5.789 7.643 11.27 14.06 16.441 19.248 5.22 5.217 10.13 9.205 14.733 11.967 6.643 3.986 11.862 5.092 15.658 3.318 3.843-1.804 5.766-6.19 5.766-13.16 0-7.03-1.923-13.723-5.766-20.08-3.796-6.328-9.015-11.485-15.658-15.47a56.585 56.585 0 0 0-12.598-5.594c-4.46-1.426-9.252-2.335-14.377-2.729V226.52zm270.047 5.732v85.809L400 309.809v25.414l-13.754 8.252v24.777l-23.502 14.102v-24.778L320 383.223v-30.06l38.611-104.331 27.635-16.58zm-23.502 42.978l-27.248 73.28 27.248-16.348V275.23z" fill="#000" fill-opacity="1"></path></g></svg><svg xmlns="http://www.w3.org/2000/svg" viewBox="0 0 512 512" style="height: 128px; width: 128px;" height="512" width="512" x="1024" y="512"><path d="M0 0h512v512H0z" fill="#000" fill-opacity="0"></path><g class="" transform="translate(0,0)" style=""><path d="M255.703 44.764c-6.176 0-12.353 1.384-17.137 4.152l-152.752 88.36c-9.57 5.535-9.57 14.29 0 19.826l152.752 88.359c9.57 5.536 24.703 5.536 34.272 0l152.754-88.36c9.57-5.534 9.57-14.289 0-19.824L272.838 48.916c-4.785-2.77-10.96-4.152-17.135-4.152zm-16.066 47.728c10.426.07 20.268 2.997 29.523 8.781 7.217 4.51 11.503 9.194 12.86 14.05 1.3 4.82-.311 9.735-4.838 14.745 9.307-2.952 18.48-3.867 27.521-2.746 9.034 1.059 17.655 4.151 25.863 9.282 12.23 7.643 17.511 15.88 15.842 24.71-1.724 8.796-10.313 17.83-25.767 27.102-5.452 3.271-11.452 6.23-17.998 8.875-6.444 2.651-13.363 4.946-20.758 6.887l-24.541-15.338c8.095-1.213 15.424-2.846 21.992-4.897 6.56-2.114 12.283-4.634 17.166-7.564 7.253-4.352 11.34-8.594 12.26-12.723.967-4.157-1.277-7.939-6.73-11.347-5.62-3.512-11.851-4.97-18.698-4.371-6.855.536-14.146 3.123-21.873 7.76l-10.951 6.57-20.494-12.809 11.52-6.912c6.873-4.125 10.755-7.97 11.642-11.54.832-3.603-1.314-7.006-6.438-10.208-4.737-2.961-10.036-4.268-15.896-3.924-5.86.344-11.779 2.309-17.752 5.893-4.41 2.645-8.286 5.68-11.633 9.105-3.347 3.425-6.119 7.18-8.316 11.266l-23.303-14.565a99.387 99.387 0 0 1 12.105-12.12 109.57 109.57 0 0 1 14.323-10.214c13.795-8.277 26.75-12.81 38.865-13.601a58.478 58.478 0 0 1 4.504-.147zm196.23 81.322c-1.938.074-4.218.858-6.955 2.413l-146.935 84.847c-9.57 5.527-17.14 18.638-17.14 29.69v157.699c0 11.05 7.57 15.419 17.14 9.89l146.937-84.843c9.57-5.527 17.137-18.636 17.137-29.688v-157.7c-2.497-8.048-5.23-12.495-10.184-12.308zm-359.763.48c-6.227 0-10.033 5.325-10.155 11.825v157.697c0 11.052 7.57 24.163 17.14 29.69l146.93 84.848c9.57 5.526 17.141 1.156 17.141-9.895v-157.7c0-11.051-7.57-24.159-17.14-29.687L83.09 176.225c-2.567-1.338-4.911-1.93-6.986-1.93zm36.19 57.757c6.391 1.269 12.707 3.12 18.95 5.553 6.243 2.373 12.363 5.36 18.36 8.958 13.173 7.905 23.398 17.558 30.673 28.961 7.324 11.433 10.985 23.444 10.985 36.03 0 7.277-1.548 13.148-4.645 17.613-3.097 4.405-9.61 8.908-19.539 13.508l-23.521 10.94L192 382.68V408l-80-48v-25.32l40.184-18.928c3.588-1.784 6.244-4.038 7.964-6.764 1.72-2.725 2.58-6.115 2.58-10.172 0-6.263-1.746-12.35-5.236-18.261-3.44-5.882-8.036-10.55-13.787-14-4.424-2.655-9.266-4.397-14.525-5.227-5.26-.889-10.888-.865-16.885.07v-29.347zm261.876 7.447v111.77L400 335.77V360l-79.316 47.59v-24.23l25.832-15.499v-87.904L320 302.424v-23.865l26.363-22.377 27.807-16.684z" fill="#000" fill-opacity="1"></path></g></svg><svg xmlns="http://www.w3.org/2000/svg" viewBox="0 0 512 512" style="height: 128px; width: 128px;" height="512" width="512" x="1536" y="512"><path d="M0 0h512v512H0z" fill="#000" fill-opacity="0"></path><g class="" transform="translate(0,0)" style=""><path d="M255.703 44.764c-6.176 0-12.353 1.384-17.137 4.152l-152.752 88.36c-9.57 5.535-9.57 14.29 0 19.826l152.752 88.359c9.57 5.536 24.703 5.536 34.272 0l152.754-88.36c9.57-5.534 9.57-14.289 0-19.824L272.838 48.916c-4.785-2.77-10.96-4.152-17.135-4.152zM214.17 95.498l105.193 65.748 25.832-15.5L368 160l-79.316 47.59-22.805-14.254 25.83-15.498-82.732-51.707-20.342 19.765-22.463-14.039 20.191-19.675 27.807-16.684zm221.697 78.316c-1.938.074-4.218.858-6.955 2.413l-146.935 84.847c-9.57 5.527-17.14 18.638-17.14 29.69v157.699c0 11.05 7.57 15.419 17.14 9.89l146.937-84.843c9.57-5.527 17.137-18.636 17.137-29.688v-157.7c-2.497-8.048-5.23-12.495-10.184-12.308zm-359.763.48c-6.227 0-10.033 5.325-10.155 11.825v157.697c0 11.052 7.57 24.163 17.14 29.69l146.93 84.848c9.57 5.526 17.141 1.156 17.141-9.895v-157.7c0-11.051-7.57-24.159-17.14-29.687L83.09 176.225c-2.567-1.338-4.911-1.93-6.986-1.93zm40.447 58.056a111.214 111.214 0 0 1 16.072 5.427c5.31 2.25 10.525 4.91 15.645 7.983 13.795 8.277 24.105 17.273 30.931 26.988 6.874 9.685 10.313 20.147 10.313 31.385 0 7.668-1.637 12.98-4.908 15.933-3.272 2.896-8.106 3.419-14.506 1.569 7.158 6.578 12.587 13.814 16.285 21.71 3.745 7.867 5.617 16.16 5.617 24.882 0 12.994-4.03 20.47-12.09 22.423-8.06 1.896-19.815-1.793-35.27-11.066-5.451-3.271-10.928-7.112-16.427-11.523-5.452-4.325-10.856-9.18-16.213-14.559v-26.076c5.12 6.233 10.194 11.678 15.219 16.332 5.072 4.624 10.048 8.4 14.931 11.33 7.254 4.352 12.801 6.128 16.641 5.33 3.887-.77 5.832-4.051 5.832-9.846 0-5.97-1.992-11.672-5.975-17.105-3.934-5.463-9.764-10.514-17.492-15.15l-10.95-6.57v-21.774l11.519 6.912c6.874 4.124 11.993 5.88 15.359 5.265 3.366-.673 5.049-3.732 5.049-9.175 0-5.034-1.635-9.908-4.906-14.621-3.272-4.714-7.894-8.864-13.868-12.448-4.409-2.645-8.865-4.704-13.369-6.177-4.503-1.474-8.983-2.346-13.44-2.62v-24.76zm265.717 8.228c2.187.007 4.19.345 6.01 1.014 7.323 2.644 10.984 10.26 10.984 22.845 0 7.278-1.548 15.007-4.645 23.188-3.097 8.121-9.61 20.44-19.539 36.955l-23.521 39.164L400 334.68V360l-80 48v-25.32l40.184-67.149c3.588-6.09 6.244-11.53 7.964-16.32 1.72-4.79 2.58-9.213 2.58-13.27 0-6.263-1.746-10.255-5.236-11.978-3.44-1.753-8.036-.906-13.787 2.545-4.424 2.654-9.266 6.723-14.525 12.205-5.26 5.422-10.888 12.2-16.885 20.332v-29.348c6.39-6.399 12.706-12.127 18.95-17.185 6.242-5.118 12.362-9.476 18.359-13.075 9.88-5.928 18.101-8.88 24.664-8.859z" fill="#000" fill-opacity="1"></path></g></svg><svg xmlns="http://www.w3.org/2000/svg" viewBox="0 0 512 512" style="height: 128px; width: 128px;" height="512" width="512" x="2048" y="512"><path d="M0 0h512v512H0z" fill="#000" fill-opacity="0"></path><g class="" transform="translate(0,0)" style=""><path d="M255.703 44.764c-6.176 0-12.353 1.384-17.137 4.152l-152.752 88.36c-9.57 5.535-9.57 14.29 0 19.826l152.752 88.359c9.57 5.536 24.703 5.536 34.272 0l152.754-88.36c9.57-5.534 9.57-14.289 0-19.824L272.838 48.916c-4.785-2.77-10.96-4.152-17.135-4.152zm-14.887 48.478c12.954.21 24.983 3.786 36.088 10.727 6.85 4.28 11.7 9.21 14.555 14.787 2.798 5.542 4.201 14.398 4.209 26.566l.059 28.848 48.441-29.065L368 160l-80 48-23.832-14.895-.32-49.425c-.117-4.47-1.084-8.326-2.9-11.569-1.817-3.242-4.634-6.057-8.452-8.443-5.895-3.684-12.384-5.602-19.467-5.754-7.034-.181-13.426 1.454-19.177 4.904-4.424 2.655-8.17 6.244-11.24 10.768-3.127 4.489-5.556 9.868-7.286 16.133l-27.62-17.264a101.484 101.484 0 0 1 13.476-14.79c4.951-4.554 10.425-8.63 16.422-12.228 13.173-7.904 26.71-11.968 40.609-12.193a75.55 75.55 0 0 1 2.603-.002zm195.051 80.572c-1.938.074-4.218.858-6.955 2.413l-146.935 84.847c-9.57 5.527-17.14 18.638-17.14 29.69v157.699c0 11.05 7.57 15.419 17.14 9.89l146.937-84.843c9.57-5.527 17.137-18.636 17.137-29.688v-157.7c-2.497-8.048-5.23-12.495-10.184-12.308zm-359.763.48c-6.227 0-10.033 5.325-10.155 11.825v157.697c0 11.052 7.57 24.163 17.14 29.69l146.93 84.848c9.57 5.526 17.141 1.156 17.141-9.895v-157.7c0-11.051-7.57-24.159-17.14-29.687L83.09 176.225c-2.567-1.338-4.911-1.93-6.986-1.93zM112 230.56l26.363 9.26 27.807 16.683v111.77L192 383.77V408l-79.316-47.59v-24.23l25.832 15.498v-87.903L112 254.424v-23.865zm271.182 9.203c.441-.013.874-.01 1.295.006.962.037 1.869.151 2.722.341 6.874 1.437 10.313 7.774 10.313 19.012 0 7.668-1.637 14.941-4.908 21.82-3.272 6.821-8.106 13.147-14.506 18.977 7.158-2.012 12.587-1.29 16.285 2.17 3.745 3.372 5.617 9.417 5.617 18.139 0 12.994-4.03 25.304-12.09 36.93-8.06 11.566-19.815 21.986-35.27 31.259-5.451 3.271-10.928 6-16.427 8.188-5.452 2.217-10.856 3.85-16.213 4.898v-26.076a53.81 53.81 0 0 0 15.219-1.93c5.072-1.463 10.048-3.66 14.931-6.59 7.254-4.352 12.801-9.23 16.641-14.636 3.887-5.435 5.832-11.051 5.832-16.846 0-5.97-1.992-9.281-5.975-9.936-3.934-.741-9.764 1.206-17.492 5.842l-10.95 6.57v-21.773l11.519-6.912c6.874-4.125 11.993-8.513 15.359-13.166 3.366-4.712 5.049-9.791 5.049-15.235 0-5.033-1.635-7.944-4.906-8.732-3.272-.788-7.894.61-13.868 4.193-4.409 2.646-8.865 5.934-13.369 9.866-4.503 3.931-8.983 8.434-13.44 13.507v-24.76c5.405-5.115 10.763-9.734 16.073-13.857 5.31-4.122 10.525-7.719 15.645-10.79 11.316-6.79 20.287-10.284 26.914-10.48z" fill="#000" fill-opacity="1"></path></g></svg></svg>
